<svg xmlns="http://www.w3.org/2000/svg" width="800" height="1000" viewBox="0 0 800 1000">
    <rect width="800" height="1000" fill="white"/>
    <rect x="18" y="18" width="764" height="964" rx="26" fill="none" stroke="#2b2b52" stroke-width="10"/>
    <rect x="38" y="38" width="724" height="924" rx="18" fill="none" stroke="#2b2b52" stroke-width="3" stroke-dasharray="22 14"/>
    <circle cx="755" cy="500" r="6" fill="#2b2b52"/><circle cx="745" cy="610" r="9" fill="#2b2b52"/><circle cx="714" cy="714" r="12" fill="#2b2b52"/><circle cx="666" cy="805" r="6" fill="#2b2b52"/><circle cx="602" cy="879" r="9" fill="#2b2b52"/><circle cx="526" cy="930" r="12" fill="#2b2b52"/><circle cx="443" cy="957" r="6" fill="#2b2b52"/><circle cx="357" cy="957" r="9" fill="#2b2b52"/><circle cx="274" cy="930" r="12" fill="#2b2b52"/><circle cx="198" cy="879" r="6" fill="#2b2b52"/><circle cx="134" cy="805" r="9" fill="#2b2b52"/><circle cx="86" cy="714" r="12" fill="#2b2b52"/><circle cx="55" cy="610" r="6" fill="#2b2b52"/><circle cx="45" cy="500" r="9" fill="#2b2b52"/><circle cx="55" cy="390" r="12" fill="#2b2b52"/><circle cx="86" cy="286" r="6" fill="#2b2b52"/><circle cx="134" cy="195" r="9" fill="#2b2b52"/><circle cx="198" cy="121" r="12" fill="#2b2b52"/><circle cx="274" cy="70" r="6" fill="#2b2b52"/><circle cx="357" cy="43" r="9" fill="#2b2b52"/><circle cx="443" cy="43" r="12" fill="#2b2b52"/><circle cx="526" cy="70" r="6" fill="#2b2b52"/><circle cx="602" cy="121" r="9" fill="#2b2b52"/><circle cx="666" cy="195" r="12" fill="#2b2b52"/><circle cx="714" cy="286" r="6" fill="#2b2b52"/><circle cx="745" cy="390" r="9" fill="#2b2b52"/>
    <text x="400" y="95" text-anchor="middle" font-family="Arial Black, Arial" font-size="44" font-weight="900" fill="#2b2b52">🦋 FLUTTER BUTTERFLY</text>
    <text x="400" y="132" text-anchor="middle" font-family="Arial" font-size="22" fill="#2b2b52">LunaColor AR &#8226; color me, then scan me!</text>
    <svg x="60" y="150" width="680" height="680" viewBox="0 0 400 400" preserveAspectRatio="xMidYMid meet" xmlns="http://www.w3.org/2000/svg">
      <g stroke="#2b2b52" stroke-width="6" stroke-linejoin="round" stroke-linecap="round" fill="white">
        <path data-region="wingTopLeft" d="M182 175 C 110 70 25 110 45 195 C 60 250 140 245 182 205 Z"/>
        <path data-region="wingTopRight" d="M218 175 C 290 70 375 110 355 195 C 340 250 260 245 218 205 Z"/>
        <path data-region="wingBottomLeft" d="M184 215 C 108 245 75 330 135 345 C 180 352 192 282 190 235 Z"/>
        <path data-region="wingBottomRight" d="M216 215 C 292 245 325 330 265 345 C 220 352 208 282 210 235 Z"/>
        <ellipse data-region="body" cx="200" cy="215" rx="20" ry="75"/>
        <circle data-region="head" cx="200" cy="118" r="24"/>
      </g>
      <path d="M190 98 Q175 62 152 56" fill="none" stroke="#2b2b52" stroke-width="5" stroke-linecap="round"/>
      <path d="M210 98 Q225 62 248 56" fill="none" stroke="#2b2b52" stroke-width="5" stroke-linecap="round"/>
      <circle cx="192" cy="114" r="4" fill="#2b2b52"/><circle cx="208" cy="114" r="4" fill="#2b2b52"/>
    </svg>
    <text x="400" y="905" text-anchor="middle" font-family="Arial" font-size="21" font-weight="bold" fill="#2b2b52">1. Color me!  2. Open the LunaColor scanner!  3. Point the camera at me!</text>
    <text x="400" y="945" text-anchor="middle" font-family="Arial" font-size="18" fill="#2b2b52">lunacolor-ar &#8226; page: butterfly</text>
    
  </svg>