<svg xmlns="http://www.w3.org/2000/svg" width="800" height="1000" viewBox="0 0 800 1000">
    <rect width="800" height="1000" fill="white"/>
    <rect x="18" y="18" width="764" height="964" rx="26" fill="none" stroke="#2b2b52" stroke-width="10"/>
    <rect x="38" y="38" width="724" height="924" rx="18" fill="none" stroke="#2b2b52" stroke-width="3" stroke-dasharray="22 14"/>
    <circle cx="755" cy="500" r="6" fill="#2b2b52"/><circle cx="745" cy="610" r="9" fill="#2b2b52"/><circle cx="714" cy="714" r="12" fill="#2b2b52"/><circle cx="666" cy="805" r="6" fill="#2b2b52"/><circle cx="602" cy="879" r="9" fill="#2b2b52"/><circle cx="526" cy="930" r="12" fill="#2b2b52"/><circle cx="443" cy="957" r="6" fill="#2b2b52"/><circle cx="357" cy="957" r="9" fill="#2b2b52"/><circle cx="274" cy="930" r="12" fill="#2b2b52"/><circle cx="198" cy="879" r="6" fill="#2b2b52"/><circle cx="134" cy="805" r="9" fill="#2b2b52"/><circle cx="86" cy="714" r="12" fill="#2b2b52"/><circle cx="55" cy="610" r="6" fill="#2b2b52"/><circle cx="45" cy="500" r="9" fill="#2b2b52"/><circle cx="55" cy="390" r="12" fill="#2b2b52"/><circle cx="86" cy="286" r="6" fill="#2b2b52"/><circle cx="134" cy="195" r="9" fill="#2b2b52"/><circle cx="198" cy="121" r="12" fill="#2b2b52"/><circle cx="274" cy="70" r="6" fill="#2b2b52"/><circle cx="357" cy="43" r="9" fill="#2b2b52"/><circle cx="443" cy="43" r="12" fill="#2b2b52"/><circle cx="526" cy="70" r="6" fill="#2b2b52"/><circle cx="602" cy="121" r="9" fill="#2b2b52"/><circle cx="666" cy="195" r="12" fill="#2b2b52"/><circle cx="714" cy="286" r="6" fill="#2b2b52"/><circle cx="745" cy="390" r="9" fill="#2b2b52"/>
    <text x="400" y="95" text-anchor="middle" font-family="Arial Black, Arial" font-size="44" font-weight="900" fill="#2b2b52">🦕 DARA THE DINO</text>
    <text x="400" y="132" text-anchor="middle" font-family="Arial" font-size="22" fill="#2b2b52">LunaColor AR &#8226; color me, then scan me!</text>
    <svg x="60" y="150" width="680" height="680" viewBox="0 0 400 400" preserveAspectRatio="xMidYMid meet" xmlns="http://www.w3.org/2000/svg">
      <g stroke="#2b2b52" stroke-width="6" stroke-linejoin="round" stroke-linecap="round" fill="white">
        <rect data-region="legs" x="172" y="290" width="36" height="62" rx="16"/>
        <rect data-region="legs" x="252" y="290" width="36" height="62" rx="16"/>
        <path data-region="tail" d="M298 252 Q382 232 388 165 Q372 258 292 293 Z"/>
        <path data-region="neck" d="M138 252 C 108 190 112 128 142 98 L 180 120 C 162 160 166 212 190 248 Z"/>
        <ellipse data-region="body" cx="228" cy="263" rx="100" ry="60"/>
        <ellipse data-region="head" cx="152" cy="92" rx="36" ry="27"/>
      </g>
      <circle cx="162" cy="86" r="5" fill="#2b2b52"/>
      <path d="M128 102 Q138 110 150 107" fill="none" stroke="#2b2b52" stroke-width="4" stroke-linecap="round"/>
      <path d="M60 355 h280" fill="none" stroke="#2b2b52" stroke-width="5" stroke-linecap="round" stroke-dasharray="2 26"/>
    </svg>
    <text x="400" y="905" text-anchor="middle" font-family="Arial" font-size="21" font-weight="bold" fill="#2b2b52">1. Color me!  2. Open the LunaColor scanner!  3. Point the camera at me!</text>
    <text x="400" y="945" text-anchor="middle" font-family="Arial" font-size="18" fill="#2b2b52">lunacolor-ar &#8226; page: dino</text>
    
  </svg>